<svg id="Layer_1" data-name="Layer 1" xmlns="http://www.w3.org/2000/svg" viewBox="0 0 534.46 372.25"><defs><style>.cls-1{font-size:300px;}.cls-1,.cls-3{fill:#231f20;font-family:HelveticaNeue-CondensedBold, Helvetica Neue;font-weight:700;}.cls-2{fill:#971a45;}.cls-3{font-size:100px;}.cls-4{letter-spacing:-0.07em;}</style></defs><text class="cls-1" transform="translate(206.56 257.1)">HC</text><g id="layer101"><path class="cls-2" d="M136.26,306.48v-43l18.4-11c10.1-6.1,18.7-11.1,19.1-11.1a26.57,26.57,0,0,0,5-3c2.4-1.6,4.8-3,5.4-3a1,1,0,0,0,1.1-1,1.1,1.1,0,0,1,1.1-1c.8,0,29.3-16.7,45-26.5,8.4-5.2,10.7-5.4,7.3-.7-2.3,3-8.5,11.9-18.7,26.7-3.8,5.5-7.7,11-8.6,12.1s-2.2,3-2.9,4-3.5,5.1-6.2,8.9-5.5,7.8-6.2,8.8-2,2.7-2.8,3.7-3.5,4.9-6,8.5-7.8,11.1-11.7,16.8-7.9,11-8.5,12-2,2.7-2.8,3.7-3.5,4.9-6,8.5-5.2,7.4-6,8.5-2.1,2.6-2.8,3.7-3.5,4.9-6.2,8.8-5,7.3-5,7.7-.4.8-1,.8S136.26,334.38,136.26,306.48Z" transform="translate(-33.46 16.37)"/><path class="cls-2" d="M117.76,322.78c-1.6-2-5.5-7.4-8.5-11.8s-5.9-8.6-6.5-9.2-1.8-2.2-2.7-3.5-4.1-5.8-7-9.9-8.3-11.8-11.8-17-6.9-10-7.5-10.6-1.6-2-2.3-3c-1.9-2.8-11-15.7-12.4-17.6-.7-.9-1.9-2.5-2.6-3.5s-4.1-5.8-7.6-10.8-8.4-12.1-11-15.8-4.6-7.1-4.2-7.4,8.9,4.4,19,10.5,18.9,11.2,19.5,11.2a1.44,1.44,0,0,1,1.3.8c.4.9,5.7,4.1,8.1,4.9.9.3,1.7.9,1.7,1.4a1,1,0,0,0,1.1.9c.6,0,7.5,3.8,15.3,8.5l14.3,8.6,1.2,12.7c1.2,13.3,3.2,32.6,5.1,49.9.6,5.7,1,11.2.8,12.4C120.76,326.38,120.46,326.18,117.76,322.78Z" transform="translate(-33.46 16.37)"/><path class="cls-2" d="M136.26,126.48c0-64.4.3-117.1.8-117.1s2.1,2.3,3.7,5.1c4.5,7.7,4.7,7.9,9.5,15.9,2.4,4.1,4.8,7.6,5.2,7.8a1.65,1.65,0,0,1,.8,1.5c0,.7,1.6,3.6,3.5,6.4s3.5,5.7,3.5,6.3a1.08,1.08,0,0,0,1,1c.6,0,1,.6,1,1.3s1.2,3,2.6,5.1a59.33,59.33,0,0,1,3.8,6c3.4,6.5,24.1,40.2,24.8,40.4a1.65,1.65,0,0,1,.8,1.3c0,.5,3.3,6.3,7.3,13s8,13.5,9.1,15.2,7.7,13,14.9,25,12.8,21.9,12.6,22.1c-2,1.5-22.9,13.6-23.7,13.6a1.68,1.68,0,0,0-1.4.8c-.3.8-9.1,6.2-12.1,7.4a45.11,45.11,0,0,0-6.2,3.8,48.79,48.79,0,0,1-4.8,3c-.3,0-8.7,5-18.6,11s-18.4,11-18.6,11a47.23,47.23,0,0,0-5.8,3.5c-2.8,1.9-5.7,3.5-6.4,3.5a1.72,1.72,0,0,0-1.5.9c-.1.5-1.5,1.3-3,1.6l-2.8.7Z" transform="translate(-33.46 16.37)"/><path class="cls-2" d="M106.26,226.38a10.92,10.92,0,0,0-3.2-2c-.4,0-8.8-4.9-18.8-11s-18.3-11-18.5-11a47.23,47.23,0,0,1-5.8-3.5c-2.8-1.9-5.7-3.5-6.4-3.5s-1.3-.4-1.3-.9-.8-1.1-1.7-1.4a40.93,40.93,0,0,1-8.3-4.7,31.93,31.93,0,0,0-4.5-2.6c-2.2-1.2-4.1-2.9-4.3-3.7-.3-1.6,15.5-28.9,17-29.5a1.44,1.44,0,0,0,.8-1.3c0-.6,9.7-17.3,21.7-37.1,18.6-31.1,21.7-35.9,22.5-33.9.4,1.2,1.5,9.3,2.3,17.9,2.2,21.5,4.3,42.1,5.5,52.2.5,4.7,1.6,15.3,2.5,23.5,3.7,35.5,4.6,44.3,5.2,49.3C111.56,229.08,110.56,229.78,106.26,226.38Z" transform="translate(-33.46 16.37)"/></g><text class="cls-3" transform="translate(230.26 338.65)"><tspan class="cls-4">T</tspan><tspan x="40.6" y="0">estnet</tspan></text></svg>